<mxfile host="app.diagrams.net" modified="2024-06-11T10:51:21.326Z" agent="Mozilla/5.0 (Macintosh; Intel Mac OS X 10_15_7) AppleWebKit/537.36 (KHTML, like Gecko) Chrome/125.0.0.0 Safari/537.36" etag="2fowxu6YWLzjdgvPQqkd" version="24.5.2" type="device">
  <diagram name="Page-1" id="gAOutRz_8IwvLv7lwfUQ">
    <mxGraphModel dx="1536" dy="884" grid="1" gridSize="10" guides="1" tooltips="1" connect="1" arrows="1" fold="1" page="1" pageScale="1" pageWidth="827" pageHeight="1169" math="0" shadow="0">
      <root>
        <mxCell id="0" />
        <mxCell id="1" parent="0" />
        <mxCell id="d82dccrMEea1zIyo9Eex-1" value="AWS Lambda" style="rounded=1;whiteSpace=wrap;html=1;fontColor=#CC6600;labelBackgroundColor=none;" vertex="1" parent="1">
          <mxGeometry x="320" y="520" width="160" height="240" as="geometry" />
        </mxCell>
        <mxCell id="d82dccrMEea1zIyo9Eex-3" value="S3 Bucket" style="rounded=1;whiteSpace=wrap;html=1;fontColor=#0066CC;labelBackgroundColor=none;" vertex="1" parent="1">
          <mxGeometry x="640" y="600" width="120" height="80" as="geometry" />
        </mxCell>
        <mxCell id="d82dccrMEea1zIyo9Eex-4" value="GitHub RESTful API" style="rounded=1;whiteSpace=wrap;html=1;fontColor=#FF0000;labelBackgroundColor=none;" vertex="1" parent="1">
          <mxGeometry x="40" y="520" width="120" height="80" as="geometry" />
        </mxCell>
        <mxCell id="d82dccrMEea1zIyo9Eex-5" value="&lt;h1 style=&quot;margin-top: 0px;&quot;&gt;Historic Data Process&lt;/h1&gt;" style="text;html=1;whiteSpace=wrap;overflow=hidden;rounded=0;align=center;fontStyle=0;labelBackgroundColor=none;" vertex="1" parent="1">
          <mxGeometry x="40" y="440" width="720" height="40" as="geometry" />
        </mxCell>
        <mxCell id="d82dccrMEea1zIyo9Eex-6" value="GitHub RESTful API" style="rounded=1;whiteSpace=wrap;html=1;fontColor=#009900;labelBackgroundColor=none;" vertex="1" parent="1">
          <mxGeometry x="40" y="680" width="120" height="80" as="geometry" />
        </mxCell>
        <mxCell id="d82dccrMEea1zIyo9Eex-8" value="Returns Access Token&lt;div&gt;for future requests&lt;/div&gt;" style="edgeStyle=orthogonalEdgeStyle;rounded=0;orthogonalLoop=1;jettySize=auto;html=1;exitX=0;exitY=0.75;exitDx=0;exitDy=0;entryX=1;entryY=0.75;entryDx=0;entryDy=0;fontColor=#FF0000;labelBackgroundColor=none;" edge="1" parent="1">
          <mxGeometry relative="1" as="geometry">
            <mxPoint x="160" y="580" as="sourcePoint" />
            <mxPoint x="320" y="580" as="targetPoint" />
            <mxPoint as="offset" />
          </mxGeometry>
        </mxCell>
        <mxCell id="d82dccrMEea1zIyo9Eex-9" value="Get request with&lt;div&gt;Installation ID&lt;/div&gt;" style="edgeStyle=orthogonalEdgeStyle;rounded=0;orthogonalLoop=1;jettySize=auto;html=1;exitX=1;exitY=0.25;exitDx=0;exitDy=0;entryX=0;entryY=0.25;entryDx=0;entryDy=0;fontColor=#FF0000;labelBackgroundColor=none;" edge="1" parent="1">
          <mxGeometry relative="1" as="geometry">
            <mxPoint x="320" y="540" as="sourcePoint" />
            <mxPoint x="160" y="540" as="targetPoint" />
            <Array as="points">
              <mxPoint x="290" y="540" />
              <mxPoint x="290" y="540" />
            </Array>
          </mxGeometry>
        </mxCell>
        <mxCell id="d82dccrMEea1zIyo9Eex-10" value="Updated Usage&amp;nbsp;&lt;div&gt;Information&lt;/div&gt;" style="edgeStyle=orthogonalEdgeStyle;rounded=0;orthogonalLoop=1;jettySize=auto;html=1;entryX=0;entryY=0.75;entryDx=0;entryDy=0;fontColor=#0066CC;labelBackgroundColor=none;" edge="1" parent="1" target="d82dccrMEea1zIyo9Eex-3">
          <mxGeometry relative="1" as="geometry">
            <mxPoint x="480" y="660" as="sourcePoint" />
            <mxPoint x="600" y="659.5" as="targetPoint" />
            <mxPoint as="offset" />
          </mxGeometry>
        </mxCell>
        <mxCell id="d82dccrMEea1zIyo9Eex-11" value="Old Usage Information" style="edgeStyle=orthogonalEdgeStyle;rounded=0;orthogonalLoop=1;jettySize=auto;html=1;exitX=0;exitY=0.25;exitDx=0;exitDy=0;fontColor=#0066CC;labelBackgroundColor=none;" edge="1" parent="1" source="d82dccrMEea1zIyo9Eex-3">
          <mxGeometry relative="1" as="geometry">
            <mxPoint x="600" y="619.5" as="sourcePoint" />
            <mxPoint x="480" y="619" as="targetPoint" />
            <Array as="points">
              <mxPoint x="570" y="620" />
            </Array>
            <mxPoint as="offset" />
          </mxGeometry>
        </mxCell>
        <mxCell id="d82dccrMEea1zIyo9Eex-12" value="Get request with access&lt;div&gt;token&lt;/div&gt;" style="edgeStyle=orthogonalEdgeStyle;rounded=0;orthogonalLoop=1;jettySize=auto;html=1;exitX=1;exitY=0.25;exitDx=0;exitDy=0;entryX=0;entryY=0.25;entryDx=0;entryDy=0;fontColor=#009900;labelBackgroundColor=none;" edge="1" parent="1">
          <mxGeometry relative="1" as="geometry">
            <mxPoint x="320" y="699.5" as="sourcePoint" />
            <mxPoint x="160" y="699.5" as="targetPoint" />
            <mxPoint as="offset" />
          </mxGeometry>
        </mxCell>
        <mxCell id="d82dccrMEea1zIyo9Eex-13" value="Returns Usage&lt;div&gt;Information for last&lt;/div&gt;&lt;div&gt;28 days&lt;/div&gt;" style="edgeStyle=orthogonalEdgeStyle;rounded=0;orthogonalLoop=1;jettySize=auto;html=1;exitX=0;exitY=0.75;exitDx=0;exitDy=0;entryX=1;entryY=0.75;entryDx=0;entryDy=0;fontColor=#009900;labelBackgroundColor=none;" edge="1" parent="1">
          <mxGeometry relative="1" as="geometry">
            <mxPoint as="offset" />
            <mxPoint x="160" y="739.5" as="sourcePoint" />
            <mxPoint x="320" y="739.5" as="targetPoint" />
          </mxGeometry>
        </mxCell>
        <mxCell id="d82dccrMEea1zIyo9Eex-14" value="Get request with JWT" style="edgeStyle=orthogonalEdgeStyle;rounded=0;orthogonalLoop=1;jettySize=auto;html=1;exitX=1;exitY=0.25;exitDx=0;exitDy=0;entryX=0;entryY=0.25;entryDx=0;entryDy=0;fontColor=#FF0000;labelBackgroundColor=none;" edge="1" parent="1" source="d82dccrMEea1zIyo9Eex-15" target="d82dccrMEea1zIyo9Eex-17">
          <mxGeometry relative="1" as="geometry" />
        </mxCell>
        <mxCell id="d82dccrMEea1zIyo9Eex-15" value="Copilot Usage Dashboard" style="rounded=1;whiteSpace=wrap;html=1;fontColor=#FF0000;labelBackgroundColor=none;" vertex="1" parent="1">
          <mxGeometry x="40" y="920" width="80" height="80" as="geometry" />
        </mxCell>
        <mxCell id="d82dccrMEea1zIyo9Eex-16" value="Returns Github App&lt;div&gt;&amp;nbsp;Installation ID&lt;/div&gt;" style="edgeStyle=orthogonalEdgeStyle;rounded=0;orthogonalLoop=1;jettySize=auto;html=1;exitX=0;exitY=0.75;exitDx=0;exitDy=0;entryX=1;entryY=0.75;entryDx=0;entryDy=0;fontColor=#FF0000;labelBackgroundColor=none;" edge="1" parent="1" source="d82dccrMEea1zIyo9Eex-17" target="d82dccrMEea1zIyo9Eex-15">
          <mxGeometry relative="1" as="geometry" />
        </mxCell>
        <mxCell id="d82dccrMEea1zIyo9Eex-17" value="GitHub RESTful API" style="rounded=1;whiteSpace=wrap;html=1;fontColor=#FF0000;labelBackgroundColor=none;" vertex="1" parent="1">
          <mxGeometry x="280" y="920" width="80" height="80" as="geometry" />
        </mxCell>
        <mxCell id="d82dccrMEea1zIyo9Eex-18" value="Get request with&lt;div&gt;Installation ID&lt;/div&gt;" style="edgeStyle=orthogonalEdgeStyle;rounded=0;orthogonalLoop=1;jettySize=auto;html=1;exitX=1;exitY=0.25;exitDx=0;exitDy=0;entryX=0;entryY=0.25;entryDx=0;entryDy=0;fontColor=#FF0000;labelBackgroundColor=none;" edge="1" parent="1" source="d82dccrMEea1zIyo9Eex-19" target="d82dccrMEea1zIyo9Eex-21">
          <mxGeometry relative="1" as="geometry">
            <Array as="points">
              <mxPoint x="150" y="1140" />
              <mxPoint x="150" y="1140" />
            </Array>
          </mxGeometry>
        </mxCell>
        <mxCell id="d82dccrMEea1zIyo9Eex-19" value="Copilot Usage Dashboard" style="rounded=1;whiteSpace=wrap;html=1;fontColor=#FF0000;labelBackgroundColor=none;" vertex="1" parent="1">
          <mxGeometry x="40" y="1120" width="80" height="80" as="geometry" />
        </mxCell>
        <mxCell id="d82dccrMEea1zIyo9Eex-20" value="Returns Access Token&lt;div&gt;for future requests&lt;/div&gt;" style="edgeStyle=orthogonalEdgeStyle;rounded=0;orthogonalLoop=1;jettySize=auto;html=1;exitX=0;exitY=0.75;exitDx=0;exitDy=0;entryX=1;entryY=0.75;entryDx=0;entryDy=0;fontColor=#FF0000;labelBackgroundColor=none;" edge="1" parent="1" source="d82dccrMEea1zIyo9Eex-21" target="d82dccrMEea1zIyo9Eex-19">
          <mxGeometry relative="1" as="geometry">
            <mxPoint as="offset" />
          </mxGeometry>
        </mxCell>
        <mxCell id="d82dccrMEea1zIyo9Eex-21" value="GitHub RESTful API" style="rounded=1;whiteSpace=wrap;html=1;fontColor=#FF0000;labelBackgroundColor=none;" vertex="1" parent="1">
          <mxGeometry x="280" y="1120" width="80" height="80" as="geometry" />
        </mxCell>
        <mxCell id="d82dccrMEea1zIyo9Eex-22" value="1. Get the installation ID of the Github App by sending a GET request to /orgs/{org}/installation&amp;nbsp;" style="text;html=1;align=left;verticalAlign=middle;whiteSpace=wrap;rounded=0;fontColor=#FF0000;labelBackgroundColor=none;" vertex="1" parent="1">
          <mxGeometry x="40" y="840" width="320" height="40" as="geometry" />
        </mxCell>
        <mxCell id="d82dccrMEea1zIyo9Eex-23" value="&lt;h1 style=&quot;margin-top: 0px;&quot;&gt;1. Authentication&lt;/h1&gt;" style="text;html=1;whiteSpace=wrap;overflow=hidden;rounded=0;labelBackgroundColor=none;" vertex="1" parent="1">
          <mxGeometry x="40" y="800" width="320" height="40" as="geometry" />
        </mxCell>
        <mxCell id="d82dccrMEea1zIyo9Eex-24" value="2. Get an Access Token by sending a GET request to /app/installations/{installation_id}/access_tokens" style="text;html=1;align=left;verticalAlign=middle;whiteSpace=wrap;rounded=0;fontColor=#FF0000;labelBackgroundColor=none;" vertex="1" parent="1">
          <mxGeometry x="40" y="1040" width="320" height="40" as="geometry" />
        </mxCell>
        <mxCell id="d82dccrMEea1zIyo9Eex-25" value="Get request with access&lt;div&gt;token&lt;/div&gt;" style="edgeStyle=orthogonalEdgeStyle;rounded=0;orthogonalLoop=1;jettySize=auto;html=1;exitX=1;exitY=0.25;exitDx=0;exitDy=0;entryX=0;entryY=0.25;entryDx=0;entryDy=0;fontColor=#009900;labelBackgroundColor=none;" edge="1" parent="1" source="d82dccrMEea1zIyo9Eex-26" target="d82dccrMEea1zIyo9Eex-28">
          <mxGeometry relative="1" as="geometry">
            <mxPoint as="offset" />
          </mxGeometry>
        </mxCell>
        <mxCell id="d82dccrMEea1zIyo9Eex-26" value="Copilot Usage Dashboard" style="rounded=1;whiteSpace=wrap;html=1;fontColor=#009900;labelBackgroundColor=none;" vertex="1" parent="1">
          <mxGeometry x="40" y="1360" width="80" height="80" as="geometry" />
        </mxCell>
        <mxCell id="d82dccrMEea1zIyo9Eex-27" value="Returns Usage and&lt;div&gt;Seat Information for&lt;/div&gt;&lt;div&gt;last 28 days&lt;/div&gt;" style="edgeStyle=orthogonalEdgeStyle;rounded=0;orthogonalLoop=1;jettySize=auto;html=1;exitX=0;exitY=0.75;exitDx=0;exitDy=0;entryX=1;entryY=0.75;entryDx=0;entryDy=0;fontColor=#009900;labelBackgroundColor=none;" edge="1" parent="1" source="d82dccrMEea1zIyo9Eex-28" target="d82dccrMEea1zIyo9Eex-26">
          <mxGeometry relative="1" as="geometry">
            <mxPoint as="offset" />
          </mxGeometry>
        </mxCell>
        <mxCell id="d82dccrMEea1zIyo9Eex-28" value="GitHub RESTful API" style="rounded=1;whiteSpace=wrap;html=1;fontColor=#009900;labelBackgroundColor=none;" vertex="1" parent="1">
          <mxGeometry x="280" y="1360" width="80" height="80" as="geometry" />
        </mxCell>
        <mxCell id="d82dccrMEea1zIyo9Eex-29" value="1. Send GET Requests to /orgs/{org}/copilot/usage to get Copilot Usage information" style="text;html=1;align=left;verticalAlign=middle;whiteSpace=wrap;rounded=0;fontColor=#009900;labelBackgroundColor=none;" vertex="1" parent="1">
          <mxGeometry x="40" y="1280" width="320" height="40" as="geometry" />
        </mxCell>
        <mxCell id="d82dccrMEea1zIyo9Eex-30" value="&lt;h1 style=&quot;margin-top: 0px;&quot;&gt;2. Live Data&lt;/h1&gt;" style="text;html=1;whiteSpace=wrap;overflow=hidden;rounded=0;labelBackgroundColor=none;" vertex="1" parent="1">
          <mxGeometry x="40" y="1240" width="180" height="40" as="geometry" />
        </mxCell>
        <mxCell id="d82dccrMEea1zIyo9Eex-31" value="&lt;h1 style=&quot;margin-top: 0px;&quot;&gt;3. AWS Lambda and S3&lt;/h1&gt;" style="text;html=1;whiteSpace=wrap;overflow=hidden;rounded=0;labelBackgroundColor=none;" vertex="1" parent="1">
          <mxGeometry x="440" y="800" width="320" height="40" as="geometry" />
        </mxCell>
        <mxCell id="d82dccrMEea1zIyo9Eex-32" value="1. Get old Usage Information from S3 Bucket" style="text;html=1;align=left;verticalAlign=middle;whiteSpace=wrap;rounded=0;fontColor=#0066CC;labelBackgroundColor=none;" vertex="1" parent="1">
          <mxGeometry x="440" y="840" width="320" height="40" as="geometry" />
        </mxCell>
        <mxCell id="d82dccrMEea1zIyo9Eex-33" value="2. Get live data from Live Data process" style="text;html=1;align=left;verticalAlign=middle;whiteSpace=wrap;rounded=0;fontColor=#009900;labelBackgroundColor=none;" vertex="1" parent="1">
          <mxGeometry x="440" y="1040" width="320" height="40" as="geometry" />
        </mxCell>
        <mxCell id="d82dccrMEea1zIyo9Eex-34" value="3. Append live data to old data if not already recorded" style="text;html=1;align=left;verticalAlign=middle;whiteSpace=wrap;rounded=0;fontColor=#CC6600;labelBackgroundColor=none;" vertex="1" parent="1">
          <mxGeometry x="440" y="1080" width="320" height="40" as="geometry" />
        </mxCell>
        <mxCell id="d82dccrMEea1zIyo9Eex-35" value="4. Push updated usage information back to S3" style="text;html=1;align=left;verticalAlign=middle;whiteSpace=wrap;rounded=0;fontColor=#0066CC;labelBackgroundColor=none;" vertex="1" parent="1">
          <mxGeometry x="440" y="1120" width="320" height="40" as="geometry" />
        </mxCell>
        <mxCell id="d82dccrMEea1zIyo9Eex-36" value="AWS&amp;nbsp;&lt;div&gt;Lambda&lt;/div&gt;" style="rounded=1;whiteSpace=wrap;html=1;fontColor=#0066CC;labelBackgroundColor=none;" vertex="1" parent="1">
          <mxGeometry x="440" y="920" width="80" height="80" as="geometry" />
        </mxCell>
        <mxCell id="d82dccrMEea1zIyo9Eex-37" value="Old Usage Information" style="edgeStyle=orthogonalEdgeStyle;rounded=0;orthogonalLoop=1;jettySize=auto;html=1;exitX=0;exitY=0.5;exitDx=0;exitDy=0;entryX=1;entryY=0.5;entryDx=0;entryDy=0;fontColor=#0066CC;labelBackgroundColor=none;" edge="1" parent="1" source="d82dccrMEea1zIyo9Eex-38" target="d82dccrMEea1zIyo9Eex-36">
          <mxGeometry relative="1" as="geometry" />
        </mxCell>
        <mxCell id="d82dccrMEea1zIyo9Eex-38" value="S3&lt;div&gt;Bucket&lt;/div&gt;" style="rounded=1;whiteSpace=wrap;html=1;fontColor=#0066CC;labelBackgroundColor=none;" vertex="1" parent="1">
          <mxGeometry x="680" y="920" width="80" height="80" as="geometry" />
        </mxCell>
        <mxCell id="d82dccrMEea1zIyo9Eex-39" value="AWS&amp;nbsp;&lt;div&gt;Lambda&lt;/div&gt;" style="rounded=1;whiteSpace=wrap;html=1;fontColor=#0066CC;labelBackgroundColor=none;" vertex="1" parent="1">
          <mxGeometry x="440" y="1200" width="80" height="80" as="geometry" />
        </mxCell>
        <mxCell id="d82dccrMEea1zIyo9Eex-40" value="Updated Usage&amp;nbsp;&lt;div&gt;Information&lt;/div&gt;" style="edgeStyle=orthogonalEdgeStyle;rounded=0;orthogonalLoop=1;jettySize=auto;html=1;exitX=1;exitY=0.5;exitDx=0;exitDy=0;entryX=0;entryY=0.5;entryDx=0;entryDy=0;fontColor=#0066CC;labelBackgroundColor=none;" edge="1" parent="1" source="d82dccrMEea1zIyo9Eex-39" target="d82dccrMEea1zIyo9Eex-41">
          <mxGeometry relative="1" as="geometry" />
        </mxCell>
        <mxCell id="d82dccrMEea1zIyo9Eex-41" value="S3&lt;div&gt;Bucket&lt;/div&gt;" style="rounded=1;whiteSpace=wrap;html=1;fontColor=#0066CC;labelBackgroundColor=none;" vertex="1" parent="1">
          <mxGeometry x="680" y="1200" width="80" height="80" as="geometry" />
        </mxCell>
        <mxCell id="d82dccrMEea1zIyo9Eex-47" value="&lt;h1 style=&quot;margin-top: 0px;&quot;&gt;Dashboard Data Model&lt;/h1&gt;" style="text;html=1;whiteSpace=wrap;overflow=hidden;rounded=0;align=center;fontStyle=0;labelBackgroundColor=none;" vertex="1" parent="1">
          <mxGeometry x="40" y="40" width="720" height="40" as="geometry" />
        </mxCell>
        <mxCell id="d82dccrMEea1zIyo9Eex-48" value="Historic Usage Information" style="edgeStyle=orthogonalEdgeStyle;rounded=0;orthogonalLoop=1;jettySize=auto;html=1;exitX=1;exitY=0.5;exitDx=0;exitDy=0;entryX=0;entryY=0.5;entryDx=0;entryDy=0;labelBackgroundColor=none;fontColor=#000000;" edge="1" parent="1" source="d82dccrMEea1zIyo9Eex-49" target="d82dccrMEea1zIyo9Eex-51">
          <mxGeometry relative="1" as="geometry" />
        </mxCell>
        <mxCell id="d82dccrMEea1zIyo9Eex-49" value="S3 Bucket" style="rounded=1;whiteSpace=wrap;html=1;fontColor=#000000;labelBackgroundColor=none;strokeColor=#000000;" vertex="1" parent="1">
          <mxGeometry x="40" y="240" width="120" height="80" as="geometry" />
        </mxCell>
        <mxCell id="d82dccrMEea1zIyo9Eex-50" value="GitHub RESTful API" style="rounded=1;whiteSpace=wrap;html=1;fontColor=#000000;labelBackgroundColor=none;" vertex="1" parent="1">
          <mxGeometry x="640" y="160" width="120" height="240" as="geometry" />
        </mxCell>
        <mxCell id="d82dccrMEea1zIyo9Eex-51" value="Copilot Usage Dashboard" style="rounded=1;whiteSpace=wrap;html=1;fontColor=#000000;labelBackgroundColor=none;" vertex="1" parent="1">
          <mxGeometry x="320" y="160" width="160" height="240" as="geometry" />
        </mxCell>
        <mxCell id="d82dccrMEea1zIyo9Eex-52" value="Returns Access Token&lt;div&gt;for future requests&lt;/div&gt;" style="edgeStyle=orthogonalEdgeStyle;rounded=0;orthogonalLoop=1;jettySize=auto;html=1;exitX=0;exitY=0.75;exitDx=0;exitDy=0;entryX=1;entryY=0.25;entryDx=0;entryDy=0;fontColor=#000000;labelBackgroundColor=none;" edge="1" parent="1" target="d82dccrMEea1zIyo9Eex-51">
          <mxGeometry relative="1" as="geometry">
            <mxPoint x="640" y="219.75" as="sourcePoint" />
            <mxPoint x="480" y="219.75" as="targetPoint" />
            <mxPoint as="offset" />
          </mxGeometry>
        </mxCell>
        <mxCell id="d82dccrMEea1zIyo9Eex-53" value="Get request with access&lt;div&gt;token&lt;/div&gt;" style="edgeStyle=orthogonalEdgeStyle;rounded=0;orthogonalLoop=1;jettySize=auto;html=1;exitX=1;exitY=0.75;exitDx=0;exitDy=0;entryX=0;entryY=0.25;entryDx=0;entryDy=0;fontColor=#000000;labelBackgroundColor=none;" edge="1" parent="1" source="d82dccrMEea1zIyo9Eex-51">
          <mxGeometry relative="1" as="geometry">
            <mxPoint x="480" y="339.25" as="sourcePoint" />
            <mxPoint x="640" y="339.25" as="targetPoint" />
            <mxPoint as="offset" />
          </mxGeometry>
        </mxCell>
        <mxCell id="d82dccrMEea1zIyo9Eex-54" value="Returns Usage&lt;div&gt;Information for last&lt;/div&gt;&lt;div&gt;28 days&lt;/div&gt;" style="edgeStyle=orthogonalEdgeStyle;rounded=0;orthogonalLoop=1;jettySize=auto;html=1;exitX=0;exitY=0.75;exitDx=0;exitDy=0;entryX=1.017;entryY=0.913;entryDx=0;entryDy=0;fontColor=#000000;labelBackgroundColor=none;entryPerimeter=0;" edge="1" parent="1" target="d82dccrMEea1zIyo9Eex-51">
          <mxGeometry relative="1" as="geometry">
            <mxPoint as="offset" />
            <mxPoint x="640" y="379.25" as="sourcePoint" />
            <mxPoint x="480" y="379.25" as="targetPoint" />
          </mxGeometry>
        </mxCell>
        <mxCell id="d82dccrMEea1zIyo9Eex-55" value="Get request with&lt;div&gt;Installation ID&lt;/div&gt;" style="edgeStyle=orthogonalEdgeStyle;rounded=0;orthogonalLoop=1;jettySize=auto;html=1;exitX=0;exitY=0.75;exitDx=0;exitDy=0;entryX=1;entryY=0.25;entryDx=0;entryDy=0;fontColor=#000000;labelBackgroundColor=none;" edge="1" parent="1">
          <mxGeometry relative="1" as="geometry">
            <mxPoint x="480" y="180.25" as="sourcePoint" />
            <mxPoint x="640" y="180" as="targetPoint" />
            <mxPoint as="offset" />
          </mxGeometry>
        </mxCell>
        <mxCell id="d82dccrMEea1zIyo9Eex-56" value="Historic Data Process (If enabled)" style="text;html=1;align=left;verticalAlign=middle;whiteSpace=wrap;rounded=0;" vertex="1" parent="1">
          <mxGeometry x="40" y="120" width="360" height="40" as="geometry" />
        </mxCell>
        <mxCell id="d82dccrMEea1zIyo9Eex-57" value="Live Data Process" style="text;html=1;align=right;verticalAlign=middle;whiteSpace=wrap;rounded=0;" vertex="1" parent="1">
          <mxGeometry x="400" y="120" width="360" height="40" as="geometry" />
        </mxCell>
      </root>
    </mxGraphModel>
  </diagram>
</mxfile>
